<svg width="21" height="21" viewBox="0 0 21 21" fill="none" xmlns="http://www.w3.org/2000/svg">
<g clip-path="url(#clip0_1_11)">
<path d="M20.9066 3.66821C20.8237 3.56215 20.6965 3.50017 20.5619 3.50021H3.93734C3.69572 3.50017 3.4998 3.69598 3.49976 3.93759C3.49976 3.967 3.50271 3.99636 3.50861 4.0252L5.25858 12.7749C5.30283 13.0018 5.5159 13.1551 5.74505 13.1249L18.8697 11.3749C19.0476 11.3511 19.193 11.2211 19.2363 11.0468L20.9862 4.04706C21.0201 3.91528 20.9906 3.77521 20.9066 3.66821Z" fill="#FFC107"/>
<path d="M16.1871 20.1247C17.3951 20.1247 18.3745 19.1454 18.3745 17.9373C18.3745 16.7292 17.3951 15.7499 16.1871 15.7499C14.979 15.7499 13.9996 16.7292 13.9996 17.9373C13.9996 19.1454 14.979 20.1247 16.1871 20.1247Z" fill="#27214A"/>
<path d="M7.43724 20.1247C8.64532 20.1247 9.62466 19.1454 9.62466 17.9373C9.62466 16.7292 8.64532 15.7499 7.43724 15.7499C6.22916 15.7499 5.24982 16.7292 5.24982 17.9373C5.24982 19.1454 6.22916 20.1247 7.43724 20.1247Z" fill="#27214A"/>
<path d="M7.83888 14.8749H17.937C18.1786 14.8749 18.3745 14.679 18.3745 14.4374C18.3745 14.1957 18.1786 13.9999 17.937 13.9999H7.83888C6.79679 13.9977 5.90005 13.2626 5.69346 12.2412L3.49115 1.22527C3.44956 1.02155 3.27033 0.875249 3.06242 0.87529H0.437501C0.195885 0.87529 0 1.07113 0 1.31275C0 1.55437 0.195885 1.75025 0.437501 1.75025H2.70367L4.83597 12.4127C5.12492 13.8426 6.38008 14.8717 7.83888 14.8749Z" fill="#27214A"/>
</g>
<defs>
<clipPath id="clip0_1_11">
<rect width="21" height="21" fill="white"/>
</clipPath>
</defs>
</svg>
